<svg xmlns="http://www.w3.org/2000/svg" viewBox="0 0 1200 675" role="img" aria-labelledby="title desc">
	<title id="title">Network Marketing Management System preview</title>
	<desc id="desc">A composed preview of NetGrow mobile screens showing login, tree, earnings, and products.</desc>
	<defs>
		<linearGradient id="blue" x1="0" x2="1" y1="0" y2="1">
			<stop offset="0" stop-color="#3b82f6"/>
			<stop offset="1" stop-color="#1e3a8a"/>
		</linearGradient>
		<linearGradient id="purple" x1="0" x2="1">
			<stop offset="0" stop-color="#6366f1"/>
			<stop offset="1" stop-color="#4f46e5"/>
		</linearGradient>
		<linearGradient id="green" x1="0" x2="1" y1="0" y2="1">
			<stop offset="0" stop-color="#064e3b"/>
			<stop offset="1" stop-color="#10b981"/>
		</linearGradient>
		<filter id="shadow" x="-20%" y="-20%" width="140%" height="140%">
			<feDropShadow dx="0" dy="18" stdDeviation="18" flood-color="#0f172a" flood-opacity=".22"/>
		</filter>
	</defs>
	<rect width="1200" height="675" fill="#eff6ff"/>
	<rect x="0" y="0" width="1200" height="675" fill="url(#blue)"/>
	<circle cx="1020" cy="94" r="150" fill="#60a5fa" opacity=".2"/>
	<circle cx="166" cy="565" r="180" fill="#111827" opacity=".2"/>

	<g filter="url(#shadow)">
		<rect x="70" y="65" width="310" height="545" rx="34" fill="#ffffff"/>
		<circle cx="225" cy="142" r="58" fill="#dbeafe"/>
		<path d="M197 150l45-45v33h31l-45 45v-33z" fill="#f59e0b"/>
		<text x="225" y="225" text-anchor="middle" font-family="Poppins, Segoe UI, sans-serif" font-size="46" font-weight="800" fill="#111827">NetGrow</text>
		<text x="225" y="264" text-anchor="middle" font-family="Poppins, Segoe UI, sans-serif" font-size="22" fill="#6b7280">Network Marketing</text>
		<rect x="105" y="330" width="240" height="58" rx="15" fill="#f3f4f6"/>
		<text x="151" y="367" font-family="Poppins, Segoe UI, sans-serif" font-size="22" fill="#6b7280">Email or Username</text>
		<rect x="105" y="412" width="240" height="58" rx="15" fill="#f3f4f6"/>
		<text x="151" y="449" font-family="Poppins, Segoe UI, sans-serif" font-size="22" fill="#6b7280">Password</text>
		<rect x="105" y="510" width="240" height="60" rx="15" fill="url(#purple)"/>
		<text x="225" y="549" text-anchor="middle" font-family="Poppins, Segoe UI, sans-serif" font-size="24" font-weight="800" fill="#ffffff">LOGIN</text>
	</g>

	<g filter="url(#shadow)">
		<rect x="425" y="65" width="705" height="250" rx="30" fill="#0f172a"/>
		<text x="474" y="122" font-family="Poppins, Segoe UI, sans-serif" font-size="32" font-weight="800" fill="#ffffff">Placement Tree</text>
		<text x="474" y="156" font-family="Poppins, Segoe UI, sans-serif" font-size="20" fill="#94a3b8">View and manage your 4-leg downline</text>
		<rect x="825" y="107" width="64" height="46" rx="14" fill="#111827" stroke="#334155"/>
		<text x="857" y="138" text-anchor="middle" font-family="Arial" font-size="24" fill="#ffffff">+</text>
		<rect x="908" y="107" width="64" height="46" rx="14" fill="#111827" stroke="#334155"/>
		<text x="940" y="138" text-anchor="middle" font-family="Arial" font-size="26" fill="#ffffff">-</text>
		<path d="M778 205H590M684 205V162M590 205v42M778 205v42M512 247h156M700 247h156" stroke="#334155" stroke-width="3" fill="none"/>
		<g fill="#64748b" stroke="#e5e7eb" stroke-width="2">
			<circle cx="684" cy="162" r="24"/>
			<circle cx="590" cy="247" r="22"/>
			<circle cx="778" cy="247" r="22"/>
			<circle cx="512" cy="287" r="18"/>
			<circle cx="668" cy="287" r="18"/>
			<circle cx="700" cy="287" r="18"/>
			<circle cx="856" cy="287" r="18"/>
		</g>
		<text x="684" y="164" text-anchor="middle" font-family="Arial" font-size="18" fill="#ffffff">♙</text>
	</g>

	<g filter="url(#shadow)">
		<rect x="425" y="355" width="330" height="255" rx="30" fill="#ffffff"/>
		<rect x="455" y="385" width="270" height="105" rx="24" fill="url(#green)"/>
		<text x="488" y="426" font-family="Poppins, Segoe UI, sans-serif" font-size="18" font-weight="800" fill="#d1fae5">TOTAL WALLET BALANCE</text>
		<text x="488" y="474" font-family="Poppins, Segoe UI, sans-serif" font-size="46" font-weight="800" fill="#ffffff">$1,178.00</text>
		<rect x="455" y="515" width="78" height="58" rx="16" fill="#f8fafc" stroke="#e5e7eb"/>
		<rect x="550" y="515" width="78" height="58" rx="16" fill="#f8fafc" stroke="#e5e7eb"/>
		<rect x="645" y="515" width="78" height="58" rx="16" fill="#f8fafc" stroke="#e5e7eb"/>
		<text x="494" y="550" text-anchor="middle" font-family="Poppins, Segoe UI, sans-serif" font-size="22" font-weight="800" fill="#2563eb">5k</text>
		<text x="589" y="550" text-anchor="middle" font-family="Poppins, Segoe UI, sans-serif" font-size="22" font-weight="800" fill="#10b981">1.8k</text>
		<text x="684" y="550" text-anchor="middle" font-family="Poppins, Segoe UI, sans-serif" font-size="22" font-weight="800" fill="#7c3aed">8</text>
	</g>

	<g filter="url(#shadow)">
		<rect x="800" y="355" width="330" height="255" rx="30" fill="#0f172a"/>
		<text x="835" y="407" font-family="Poppins, Segoe UI, sans-serif" font-size="32" font-weight="800" fill="#ffffff">Products</text>
		<g>
			<rect x="835" y="440" width="118" height="118" rx="18" fill="#312e81"/>
			<circle cx="894" cy="485" r="38" fill="#f59e0b" opacity=".82"/>
			<rect x="854" y="515" width="78" height="24" rx="12" fill="#111827" opacity=".7"/>
			<text x="893" y="533" text-anchor="middle" font-family="Poppins, Segoe UI, sans-serif" font-size="13" font-weight="800" fill="#ffffff">800 pts</text>
		</g>
		<g>
			<rect x="980" y="440" width="118" height="118" rx="18" fill="#7f1d1d"/>
			<circle cx="1039" cy="485" r="38" fill="#f97316" opacity=".82"/>
			<rect x="999" y="515" width="78" height="24" rx="12" fill="#111827" opacity=".7"/>
			<text x="1038" y="533" text-anchor="middle" font-family="Poppins, Segoe UI, sans-serif" font-size="13" font-weight="800" fill="#ffffff">200 pts</text>
		</g>
		<rect x="835" y="574" width="263" height="16" rx="8" fill="#4f46e5"/>
	</g>
</svg>
